name Walk8.mot
datacolumns 19
datarows 12
range 3.51500000 3.57000000
endheader

                time	   L_ground_force_vx	   L_ground_force_vy	   L_ground_force_vz	   L_ground_force_px	   L_ground_force_py	   L_ground_force_pz	   R_ground_force_vx	   R_ground_force_vy	   R_ground_force_vz	   R_ground_force_px	   R_ground_force_py	   R_ground_force_pz	   L_ground_torque_x	   L_ground_torque_y	   L_ground_torque_z	   R_ground_torque_x	   R_ground_torque_y	   R_ground_torque_z	
          3.51500000	        -14.77114705	        126.47263835	         -5.46899020	         -0.07874004	          0.00000000	         -0.01100145	         -0.00000000	          0.00000000	          0.00000000	          0.00000000	          0.00000000	          0.00000000	          0.00000000	          0.25840440	          0.00000000	          0.00000000	          0.00000000	          0.00000000	
          3.52000000	        -22.39452672	        179.85494020	         -8.00175529	         -0.17622518	          0.00000000	         -0.02363054	         -0.00000000	          0.00000000	          0.00000000	          0.00000000	          0.00000000	          0.00000000	          0.00000000	          0.35591613	          0.00000000	          0.00000000	          0.00000000	          0.00000000	
          3.52500000	        -31.34231383	        237.61131590	        -10.20186656	         -0.26189318	          0.00000000	         -0.03479125	         -0.00000000	          0.00000000	          0.00000000	          0.00000000	          0.00000000	          0.00000000	          0.00000000	          0.46489634	          0.00000000	          0.00000000	          0.00000000	          0.00000000	
          3.53000000	        -41.31364625	        296.92229992	        -11.90041202	         -0.33304507	          0.00000000	         -0.04413072	         -0.00000000	          0.00000000	          0.00000000	          0.00000000	          0.00000000	          0.00000000	          0.00000000	          0.57899627	          0.00000000	          0.00000000	          0.00000000	          0.00000000	
          3.53500000	        -51.77042520	        355.09136434	        -12.96209235	         -0.38910995	          0.00000000	         -0.05157124	         -0.00000000	          0.00000000	          0.00000000	          0.00000000	          0.00000000	          0.00000000	          0.00000000	          0.68948263	          0.00000000	          0.00000000	          0.00000000	          0.00000000	
          3.54000000	        -62.03146004	        410.06626769	        -13.25942708	         -0.43092098	          0.00000000	         -0.05721787	         -0.00000000	          0.00000000	         -0.00000000	          0.00000000	          0.00000000	          0.00000000	          0.00000000	          0.78776843	          0.00000000	          0.00000000	          0.00000000	          0.00000000	
          3.54500000	        -71.47243960	        460.46104258	        -12.69449937	         -0.46013830	          0.00000000	         -0.06128717	         -0.00000000	          0.00000000	         -0.00000000	          0.00000000	          0.00000000	         -0.00000000	          0.00000000	          0.86768979	          0.00000000	          0.00000000	          0.00000000	          0.00000000	
          3.55000000	        -79.70873224	        505.52391269	        -11.23986234	         -0.47881045	          0.00000000	         -0.06404806	         -0.00000000	          0.00000000	         -0.00000000	         -0.00000000	          0.00000000	         -0.00000000	          0.00000000	          0.92725803	          0.00000000	          0.00000000	          0.00000000	          0.00000000	
          3.55500000	        -86.67255549	        545.07301635	         -8.93261891	         -0.48906626	          0.00000000	         -0.06577992	         -0.00000000	         -0.00000000	         -0.00000000	         -0.00000000	          0.00000000	         -0.00000000	          0.00000000	          0.96877225	          0.00000000	          0.00000000	          0.00000000	          0.00000000	
          3.56000000	        -92.54481302	        579.36217420	         -5.85124609	         -0.49291821	          0.00000000	         -0.06674582	         -0.00000000	         -0.00000001	         -0.00000000	         -0.00000000	          0.00000000	         -0.00000000	          0.00000000	          0.99794619	          0.00000000	          0.00000000	          0.00000000	          0.00000000	
          3.56500000	        -97.60117775	        608.94199966	         -2.11739859	         -0.49215101	          0.00000000	         -0.06717363	          0.00000000	         -0.00000001	         -0.00000000	         -0.00000000	          0.00000000	         -0.00000000	          0.00000000	          1.02257859	          0.00000000	          0.00000000	          0.00000000	          0.00000000	
          3.57000000	       -102.08317260	        634.52869630	          2.10969859	         -0.48827129	          0.00000000	         -0.06724747	          0.00000000	         -0.00000002	         -0.00000000	         -0.00000000	          0.00000000	         -0.00000000	          0.00000000	          1.05086793	          0.00000000	          0.00000000	          0.00000000	          0.00000000	
